<?xml version="1.0" encoding="utf-8"?><!-- Generator: Iparigrafika Gear Generator by Abel Vincze http://geargenerator.com/ --><svg version="1.2" class="svggear" xmlns="http://www.w3.org/2000/svg" xmlns:xlink="http://www.w3.org/1999/xlink" x="0px" y="0px" width="650px" height="650px" viewBox="-325 -325 650 650" overflow="scroll" xml:space="preserve"><polygon id="gearpoly0" data-id="0" class="gear" fill="#ddd" stroke="#444" stroke-width="1" stroke-miterlimit="10" points="271.25,0 293.489,-0.0005 293.5945,-0.0032 293.7619,-0.0099 293.9913,-0.0223 294.2823,-0.0423 294.6349,-0.0717 295.0489,-0.1122 295.5238,-0.1657 296.0596,-0.2339 296.6557,-0.3187 297.3118,-0.4217 298.0276,-0.5448 298.8025,-0.6896 299.6361,-0.858 300.5278,-1.0517 301.4771,-1.2724 302.4833,-1.5218 303.5458,-1.8016 304.6639,-2.1135 305.8369,-2.4592 307.064,-2.8403 308.3445,-3.2585 309.6774,-3.7154 311.062,-4.2126 312.4974,-4.7517 313.9825,-5.3343 315.5165,-5.9619 317.0982,-6.6362 318.7268,-7.3585 320.401,-8.1304 322.1198,-8.9534 323.8821,-9.8289 324.8228,-10.7298 323.2573,-33.6117 322.2026,-34.3761 320.3375,-35.0035 318.5226,-35.5847 316.7588,-36.1214 315.0471,-36.6152 313.3882,-37.0677 311.7831,-37.4805 310.2324,-37.8554 308.737,-38.194 307.2976,-38.498 305.9148,-38.7691 304.5893,-39.0089 303.3217,-39.2194 302.1126,-39.4021 300.9624,-39.5588 299.8717,-39.6913 298.8409,-39.8013 297.8705,-39.8906 296.9607,-39.9611 296.1119,-40.0144 295.3245,-40.0523 294.5986,-40.0768 293.9346,-40.0895 293.3325,-40.0922 292.7924,-40.0868 292.3146,-40.0751 291.899,-40.0589 291.5457,-40.04 291.2546,-40.0202 291.0257,-40.0012 290.8589,-39.985 290.754,-39.9733 268.7222,-36.9448 262.0074,-70.2047 283.4884,-75.961 283.5896,-75.9909 283.7497,-76.0407 283.968,-76.1121 284.244,-76.2067 284.5769,-76.3264 284.9663,-76.4726 285.4112,-76.6472 285.911,-76.8518 286.4649,-77.0879 287.072,-77.3573 287.7316,-77.6614 288.4426,-78.0019 289.2042,-78.3803 290.0154,-78.7982 290.8752,-79.2571 291.7825,-79.7584 292.7364,-80.3036 293.7357,-80.8943 294.7792,-81.5318 295.8659,-82.2175 296.9945,-82.9529 298.1638,-83.7392 299.3725,-84.5778 300.6194,-85.4701 301.9032,-86.4172 303.2224,-87.4205 304.5758,-88.4811 305.9619,-89.6003 307.3793,-90.7792 308.8265,-92.019 310.3022,-93.3208 310.9777,-94.4346 303.5432,-116.1316 302.3266,-116.597 300.3627,-116.7202 298.4592,-116.8119 296.6166,-116.8738 294.8354,-116.9077 293.1159,-116.9154 291.4586,-116.8988 289.8638,-116.8596 288.3317,-116.7996 286.8627,-116.7207 285.4569,-116.6246 284.1145,-116.5133 282.8356,-116.3884 281.6204,-116.252 280.4688,-116.1057 279.381,-115.9513 278.3568,-115.7908 277.3963,-115.6259 276.4993,-115.4585 275.6657,-115.2903 274.8953,-115.1232 274.1878,-114.9589 273.5431,-114.7993 272.9608,-114.6461 272.4405,-114.5012 271.982,-114.3662 271.5848,-114.243 271.2484,-114.1332 270.9724,-114.0388 270.7562,-113.9612 270.5992,-113.9024 270.501,-113.8639 250.0037,-105.2364 234.9094,-135.625 254.1686,-146.7449 254.2587,-146.8 254.4004,-146.8895 254.5928,-147.0149 254.8348,-147.1778 255.1255,-147.3795 255.4637,-147.6216 255.8483,-147.9054 256.2781,-148.2324 256.752,-148.6038 257.2688,-149.0211 257.8271,-149.4856 258.4258,-149.9985 259.0635,-150.5611 259.7389,-151.1747 260.4506,-151.8405 261.1973,-152.5596 261.9775,-153.3331 262.7899,-154.1623 263.6329,-155.0482 264.5051,-155.9918 265.4049,-156.9942 266.3308,-158.0563 267.2813,-159.1792 268.2548,-160.3638 269.2497,-161.6109 270.2643,-162.9214 271.297,-164.2962 272.3462,-165.736 273.4102,-167.2416 274.4873,-168.8138 275.5757,-170.4531 275.9399,-171.7037 263.1431,-190.7372 261.8475,-190.8719 259.9187,-190.4826 258.0563,-190.0785 256.2605,-189.6614 254.5312,-189.2332 252.8683,-188.7956 251.2718,-188.3506 249.7414,-187.8999 248.2771,-187.4455 246.8785,-186.989 245.5455,-186.5324 244.2776,-186.0774 243.0747,-185.6258 241.9362,-185.1795 240.8617,-184.7401 239.8509,-184.3095 238.9032,-183.8894 238.0181,-183.4815 237.195,-183.0876 236.4333,-182.7094 235.7324,-182.3486 235.0915,-182.0068 234.5101,-181.6858 233.9873,-181.3871 233.5223,-181.1124 233.1143,-180.8634 232.7625,-180.6416 232.466,-180.4485 232.2238,-180.2858 232.035,-180.155 231.8987,-180.0575 231.8137,-179.9949 214.2479,-166.3563 191.8027,-191.8027 207.5277,-207.5284 207.6004,-207.6049 207.7141,-207.728 207.8675,-207.899 208.0591,-208.1189 208.2877,-208.389 208.5517,-208.7104 208.8497,-209.0841 209.1803,-209.5111 209.5419,-209.9926 209.933,-210.5294 210.3521,-211.1225 210.7977,-211.7729 211.268,-212.4815 211.7616,-213.2489 212.2768,-214.0762 212.8119,-214.9641 213.3653,-215.9132 213.9354,-216.9244 214.5204,-217.9982 215.1186,-219.1354 215.7284,-220.3366 216.3478,-221.6022 216.9753,-222.9328 217.609,-224.329 218.2472,-225.7911 218.8881,-227.3195 219.5298,-228.9148 220.1706,-230.5771 220.8087,-232.3068 221.4421,-234.1041 222.0691,-235.9693 222.0973,-237.2716 204.8103,-252.3445 203.524,-252.1392 201.7616,-251.264 200.0673,-250.3917 198.4406,-249.524 196.8811,-248.6627 195.3881,-247.8097 193.9612,-246.9666 192.5996,-246.1353 191.3028,-245.3173 190.07,-244.5144 188.9006,-243.7283 187.7937,-242.9607 186.7486,-242.2131 185.7644,-241.4873 184.8403,-240.7849 183.9754,-240.1073 183.1687,-239.4562 182.4193,-238.8332 181.7262,-238.2397 181.0883,-237.6772 180.5047,-237.1472 179.9742,-236.6513 179.4956,-236.1907 179.0679,-235.7668 178.6898,-235.3812 178.3602,-235.035 178.0778,-234.7297 177.8414,-234.4665 177.6496,-234.2467 177.5011,-234.0714 177.3946,-233.942 177.3287,-233.8596 163.8914,-216.1393 135.625,-234.9094 146.744,-254.1692 146.7945,-254.2619 146.8724,-254.4102 146.9763,-254.6151 147.1045,-254.8771 147.2554,-255.1972 147.4273,-255.5759 147.6184,-256.014 147.8272,-256.5121 148.0519,-257.0707 148.2907,-257.6905 148.542,-258.3719 148.804,-259.1154 149.075,-259.9215 149.3531,-260.7906 149.6366,-261.723 149.9237,-262.7191 150.2126,-263.7792 150.5016,-264.9034 150.7887,-266.0921 151.0722,-267.3454 151.3503,-268.6634 151.6211,-270.0462 151.8828,-271.4939 152.1336,-273.0065 152.3716,-274.584 152.595,-276.2262 152.802,-277.9332 152.9908,-279.7047 153.1594,-281.5406 153.3061,-283.4406 153.429,-285.4046 153.1191,-286.6697 132.52,-296.7549 131.3307,-296.2237 129.8548,-294.9221 128.444,-293.641 127.0974,-292.3819 125.8139,-291.1463 124.5926,-289.936 123.4325,-288.7523 122.3325,-287.5969 121.2915,-286.4711 120.3086,-285.3765 119.3824,-284.3145 118.5119,-283.2866 117.6959,-282.294 116.9331,-281.3382 116.2223,-280.4205 115.5622,-279.5422 114.9515,-278.7045 114.3889,-277.9087 113.8731,-277.156 113.4025,-276.4476 112.9759,-275.7847 112.5918,-275.1683 112.2488,-274.5995 111.9454,-274.0795 111.68,-273.6091 111.4512,-273.1894 111.2575,-272.8214 111.0972,-272.506 110.9688,-272.244 110.8708,-272.0363 110.8014,-271.8837 110.7591,-271.787 102.3659,-251.1927 70.2047,-262.0074 75.96,-283.4887 75.9847,-283.5913 76.0217,-283.7548 76.069,-283.9795 76.125,-284.2659 76.1879,-284.614 76.2559,-285.0244 76.3271,-285.497 76.3999,-286.0321 76.4723,-286.6299 76.5426,-287.2903 76.609,-288.0136 76.6697,-288.7996 76.7227,-289.6483 76.7664,-290.5598 76.799,-291.5338 76.8185,-292.5703 76.8232,-293.669 76.8113,-294.8297 76.781,-296.0522 76.7305,-297.3362 76.658,-298.6812 76.5616,-300.087 76.4397,-301.5531 76.2905,-303.0791 76.1121,-304.6644 75.9029,-306.3086 75.661,-308.0109 75.3848,-309.7709 75.0725,-311.5879 74.7224,-313.4612 74.3329,-315.39 73.7061,-316.5318 51.1987,-320.9419 50.1874,-320.121 49.0987,-318.4818 48.0675,-316.8792 47.0926,-315.3144 46.1727,-313.7888 45.3062,-312.3036 44.492,-310.86 43.7285,-309.4592 43.0145,-308.1024 42.3483,-306.7907 41.7286,-305.5252 41.1538,-304.307 40.6224,-303.137 40.133,-302.0164 39.684,-300.9459 39.2737,-299.9267 38.9006,-298.9595 38.5632,-298.0452 38.2597,-297.1847 37.9885,-296.3787 37.748,-295.6279 37.5366,-294.9331 37.3524,-294.2949 37.1939,-293.714 37.0593,-293.191 36.947,-292.7264 36.8551,-292.3208 36.7819,-291.9746 36.7257,-291.6883 36.6848,-291.4624 36.6573,-291.297 36.6414,-291.1927 33.8645,-269.1278 0,-271.25 -0.0005,-293.489 -0.0032,-293.5945 -0.0099,-293.7619 -0.0223,-293.9913 -0.0423,-294.2823 -0.0717,-294.6349 -0.1122,-295.0489 -0.1657,-295.5238 -0.2339,-296.0596 -0.3187,-296.6557 -0.4217,-297.3118 -0.5448,-298.0276 -0.6896,-298.8025 -0.858,-299.6361 -1.0517,-300.5278 -1.2724,-301.4771 -1.5218,-302.4833 -1.8016,-303.5458 -2.1135,-304.6639 -2.4592,-305.8369 -2.8403,-307.064 -3.2585,-308.3445 -3.7154,-309.6774 -4.2126,-311.062 -4.7517,-312.4974 -5.3343,-313.9825 -5.9619,-315.5165 -6.6362,-317.0982 -7.3585,-318.7268 -8.1304,-320.401 -8.9534,-322.1198 -9.8289,-323.8821 -10.7298,-324.8228 -33.6117,-323.2573 -34.3761,-322.2026 -35.0035,-320.3375 -35.5847,-318.5226 -36.1214,-316.7588 -36.6152,-315.0471 -37.0677,-313.3882 -37.4805,-311.7831 -37.8554,-310.2324 -38.194,-308.737 -38.498,-307.2976 -38.7691,-305.9148 -39.0089,-304.5893 -39.2194,-303.3217 -39.4021,-302.1126 -39.5588,-300.9624 -39.6913,-299.8717 -39.8013,-298.8409 -39.8906,-297.8705 -39.9611,-296.9607 -40.0144,-296.1119 -40.0523,-295.3245 -40.0768,-294.5986 -40.0895,-293.9346 -40.0922,-293.3325 -40.0868,-292.7924 -40.0751,-292.3146 -40.0589,-291.899 -40.04,-291.5457 -40.0202,-291.2546 -40.0012,-291.0257 -39.985,-290.8589 -39.9733,-290.754 -36.9448,-268.7222 -70.2047,-262.0074 -75.961,-283.4884 -75.9909,-283.5896 -76.0407,-283.7497 -76.1121,-283.968 -76.2067,-284.244 -76.3264,-284.5769 -76.4726,-284.9663 -76.6472,-285.4112 -76.8518,-285.911 -77.0879,-286.4649 -77.3573,-287.072 -77.6614,-287.7316 -78.0019,-288.4426 -78.3803,-289.2042 -78.7982,-290.0154 -79.2571,-290.8752 -79.7584,-291.7825 -80.3036,-292.7364 -80.8943,-293.7357 -81.5318,-294.7792 -82.2175,-295.8659 -82.9529,-296.9945 -83.7392,-298.1638 -84.5778,-299.3725 -85.4701,-300.6194 -86.4172,-301.9032 -87.4205,-303.2224 -88.4811,-304.5758 -89.6003,-305.9619 -90.7792,-307.3793 -92.019,-308.8265 -93.3208,-310.3022 -94.4346,-310.9777 -116.1316,-303.5432 -116.597,-302.3266 -116.7202,-300.3627 -116.8119,-298.4592 -116.8738,-296.6166 -116.9077,-294.8354 -116.9154,-293.1159 -116.8988,-291.4586 -116.8596,-289.8638 -116.7996,-288.3317 -116.7207,-286.8627 -116.6246,-285.4569 -116.5133,-284.1145 -116.3884,-282.8356 -116.252,-281.6204 -116.1057,-280.4688 -115.9513,-279.381 -115.7908,-278.3568 -115.6259,-277.3963 -115.4585,-276.4993 -115.2903,-275.6657 -115.1232,-274.8953 -114.9589,-274.1878 -114.7993,-273.5431 -114.6461,-272.9608 -114.5012,-272.4405 -114.3662,-271.982 -114.243,-271.5848 -114.1332,-271.2484 -114.0388,-270.9724 -113.9612,-270.7562 -113.9024,-270.5992 -113.8639,-270.501 -105.2364,-250.0037 -135.625,-234.9094 -146.7449,-254.1686 -146.8,-254.2587 -146.8895,-254.4004 -147.0149,-254.5928 -147.1778,-254.8348 -147.3795,-255.1255 -147.6216,-255.4637 -147.9054,-255.8483 -148.2324,-256.2781 -148.6038,-256.752 -149.0211,-257.2688 -149.4856,-257.8271 -149.9985,-258.4258 -150.5611,-259.0635 -151.1747,-259.7389 -151.8405,-260.4506 -152.5596,-261.1973 -153.3331,-261.9775 -154.1623,-262.7899 -155.0482,-263.6329 -155.9918,-264.5051 -156.9942,-265.4049 -158.0563,-266.3308 -159.1792,-267.2813 -160.3638,-268.2548 -161.6109,-269.2497 -162.9214,-270.2643 -164.2962,-271.297 -165.736,-272.3462 -167.2416,-273.4102 -168.8138,-274.4873 -170.4531,-275.5757 -171.7037,-275.9399 -190.7372,-263.1431 -190.8719,-261.8475 -190.4826,-259.9187 -190.0785,-258.0563 -189.6614,-256.2605 -189.2332,-254.5312 -188.7956,-252.8683 -188.3506,-251.2718 -187.8999,-249.7414 -187.4455,-248.2771 -186.989,-246.8785 -186.5324,-245.5455 -186.0774,-244.2776 -185.6258,-243.0747 -185.1795,-241.9362 -184.7401,-240.8617 -184.3095,-239.8509 -183.8894,-238.9032 -183.4815,-238.0181 -183.0876,-237.195 -182.7094,-236.4333 -182.3486,-235.7324 -182.0068,-235.0915 -181.6858,-234.5101 -181.3871,-233.9873 -181.1124,-233.5223 -180.8634,-233.1143 -180.6416,-232.7625 -180.4485,-232.466 -180.2858,-232.2238 -180.155,-232.035 -180.0575,-231.8987 -179.9949,-231.8137 -166.3563,-214.2479 -191.8027,-191.8027 -207.5284,-207.5277 -207.6049,-207.6004 -207.728,-207.7141 -207.899,-207.8675 -208.1189,-208.0591 -208.389,-208.2877 -208.7104,-208.5517 -209.0841,-208.8497 -209.5111,-209.1803 -209.9926,-209.5419 -210.5294,-209.933 -211.1225,-210.3521 -211.7729,-210.7977 -212.4815,-211.268 -213.2489,-211.7616 -214.0762,-212.2768 -214.9641,-212.8119 -215.9132,-213.3653 -216.9244,-213.9354 -217.9982,-214.5204 -219.1354,-215.1186 -220.3366,-215.7284 -221.6022,-216.3478 -222.9328,-216.9753 -224.329,-217.609 -225.7911,-218.2472 -227.3195,-218.8881 -228.9148,-219.5298 -230.5771,-220.1706 -232.3068,-220.8087 -234.1041,-221.4421 -235.9693,-222.0691 -237.2716,-222.0973 -252.3445,-204.8103 -252.1392,-203.524 -251.264,-201.7616 -250.3917,-200.0673 -249.524,-198.4406 -248.6627,-196.8811 -247.8097,-195.3881 -246.9666,-193.9612 -246.1353,-192.5996 -245.3173,-191.3028 -244.5144,-190.07 -243.7283,-188.9006 -242.9607,-187.7937 -242.2131,-186.7486 -241.4873,-185.7644 -240.7849,-184.8403 -240.1073,-183.9754 -239.4562,-183.1687 -238.8332,-182.4193 -238.2397,-181.7262 -237.6772,-181.0883 -237.1472,-180.5047 -236.6513,-179.9742 -236.1907,-179.4956 -235.7668,-179.0679 -235.3812,-178.6898 -235.035,-178.3602 -234.7297,-178.0778 -234.4665,-177.8414 -234.2467,-177.6496 -234.0714,-177.5011 -233.942,-177.3946 -233.8596,-177.3287 -216.1393,-163.8914 -234.9094,-135.625 -254.1692,-146.744 -254.2619,-146.7945 -254.4102,-146.8724 -254.6151,-146.9763 -254.8771,-147.1045 -255.1972,-147.2554 -255.5759,-147.4273 -256.014,-147.6184 -256.5121,-147.8272 -257.0707,-148.0519 -257.6905,-148.2907 -258.3719,-148.542 -259.1154,-148.804 -259.9215,-149.075 -260.7906,-149.3531 -261.723,-149.6366 -262.7191,-149.9237 -263.7792,-150.2126 -264.9034,-150.5016 -266.0921,-150.7887 -267.3454,-151.0722 -268.6634,-151.3503 -270.0462,-151.6211 -271.4939,-151.8828 -273.0065,-152.1336 -274.584,-152.3716 -276.2262,-152.595 -277.9332,-152.802 -279.7047,-152.9908 -281.5406,-153.1594 -283.4406,-153.3061 -285.4046,-153.429 -286.6697,-153.1191 -296.7549,-132.52 -296.2237,-131.3307 -294.9221,-129.8548 -293.641,-128.444 -292.3819,-127.0974 -291.1463,-125.8139 -289.936,-124.5926 -288.7523,-123.4325 -287.5969,-122.3325 -286.4711,-121.2915 -285.3765,-120.3086 -284.3145,-119.3824 -283.2866,-118.5119 -282.294,-117.6959 -281.3382,-116.9331 -280.4205,-116.2223 -279.5422,-115.5622 -278.7045,-114.9515 -277.9087,-114.3889 -277.156,-113.8731 -276.4476,-113.4025 -275.7847,-112.9759 -275.1683,-112.5918 -274.5995,-112.2488 -274.0795,-111.9454 -273.6091,-111.68 -273.1894,-111.4512 -272.8214,-111.2575 -272.506,-111.0972 -272.244,-110.9688 -272.0363,-110.8708 -271.8837,-110.8014 -271.787,-110.7591 -251.1927,-102.3659 -262.0074,-70.2047 -283.4887,-75.96 -283.5913,-75.9847 -283.7548,-76.0217 -283.9795,-76.069 -284.2659,-76.125 -284.614,-76.1879 -285.0244,-76.2559 -285.497,-76.3271 -286.0321,-76.3999 -286.6299,-76.4723 -287.2903,-76.5426 -288.0136,-76.609 -288.7996,-76.6697 -289.6483,-76.7227 -290.5598,-76.7664 -291.5338,-76.799 -292.5703,-76.8185 -293.669,-76.8232 -294.8297,-76.8113 -296.0522,-76.781 -297.3362,-76.7305 -298.6812,-76.658 -300.087,-76.5616 -301.5531,-76.4397 -303.0791,-76.2905 -304.6644,-76.1121 -306.3086,-75.9029 -308.0109,-75.661 -309.7709,-75.3848 -311.5879,-75.0725 -313.4612,-74.7224 -315.39,-74.3329 -316.5318,-73.7061 -320.9419,-51.1987 -320.121,-50.1874 -318.4818,-49.0987 -316.8792,-48.0675 -315.3144,-47.0926 -313.7888,-46.1727 -312.3036,-45.3062 -310.86,-44.492 -309.4592,-43.7285 -308.1024,-43.0145 -306.7907,-42.3483 -305.5252,-41.7286 -304.307,-41.1538 -303.137,-40.6224 -302.0164,-40.133 -300.9459,-39.684 -299.9267,-39.2737 -298.9595,-38.9006 -298.0452,-38.5632 -297.1847,-38.2597 -296.3787,-37.9885 -295.6279,-37.748 -294.9331,-37.5366 -294.2949,-37.3524 -293.714,-37.1939 -293.191,-37.0593 -292.7264,-36.947 -292.3208,-36.8551 -291.9746,-36.7819 -291.6883,-36.7257 -291.4624,-36.6848 -291.297,-36.6573 -291.1927,-36.6414 -269.1278,-33.8645 -271.25,0 -293.489,0.0005 -293.5945,0.0032 -293.7619,0.0099 -293.9913,0.0223 -294.2823,0.0423 -294.6349,0.0717 -295.0489,0.1122 -295.5238,0.1657 -296.0596,0.2339 -296.6557,0.3187 -297.3118,0.4217 -298.0276,0.5448 -298.8025,0.6896 -299.6361,0.858 -300.5278,1.0517 -301.4771,1.2724 -302.4833,1.5218 -303.5458,1.8016 -304.6639,2.1135 -305.8369,2.4592 -307.064,2.8403 -308.3445,3.2585 -309.6774,3.7154 -311.062,4.2126 -312.4974,4.7517 -313.9825,5.3343 -315.5165,5.9619 -317.0982,6.6362 -318.7268,7.3585 -320.401,8.1304 -322.1198,8.9534 -323.8821,9.8289 -324.8228,10.7298 -323.2573,33.6117 -322.2026,34.3761 -320.3375,35.0035 -318.5226,35.5847 -316.7588,36.1214 -315.0471,36.6152 -313.3882,37.0677 -311.7831,37.4805 -310.2324,37.8554 -308.737,38.194 -307.2976,38.498 -305.9148,38.7691 -304.5893,39.0089 -303.3217,39.2194 -302.1126,39.4021 -300.9624,39.5588 -299.8717,39.6913 -298.8409,39.8013 -297.8705,39.8906 -296.9607,39.9611 -296.1119,40.0144 -295.3245,40.0523 -294.5986,40.0768 -293.9346,40.0895 -293.3325,40.0922 -292.7924,40.0868 -292.3146,40.0751 -291.899,40.0589 -291.5457,40.04 -291.2546,40.0202 -291.0257,40.0012 -290.8589,39.985 -290.754,39.9733 -268.7222,36.9448 -262.0074,70.2047 -283.4884,75.961 -283.5896,75.9909 -283.7497,76.0407 -283.968,76.1121 -284.244,76.2067 -284.5769,76.3264 -284.9663,76.4726 -285.4112,76.6472 -285.911,76.8518 -286.4649,77.0879 -287.072,77.3573 -287.7316,77.6614 -288.4426,78.0019 -289.2042,78.3803 -290.0154,78.7982 -290.8752,79.2571 -291.7825,79.7584 -292.7364,80.3036 -293.7357,80.8943 -294.7792,81.5318 -295.8659,82.2175 -296.9945,82.9529 -298.1638,83.7392 -299.3725,84.5778 -300.6194,85.4701 -301.9032,86.4172 -303.2224,87.4205 -304.5758,88.4811 -305.9619,89.6003 -307.3793,90.7792 -308.8265,92.019 -310.3022,93.3208 -310.9777,94.4346 -303.5432,116.1316 -302.3266,116.597 -300.3627,116.7202 -298.4592,116.8119 -296.6166,116.8738 -294.8354,116.9077 -293.1159,116.9154 -291.4586,116.8988 -289.8638,116.8596 -288.3317,116.7996 -286.8627,116.7207 -285.4569,116.6246 -284.1145,116.5133 -282.8356,116.3884 -281.6204,116.252 -280.4688,116.1057 -279.381,115.9513 -278.3568,115.7908 -277.3963,115.6259 -276.4993,115.4585 -275.6657,115.2903 -274.8953,115.1232 -274.1878,114.9589 -273.5431,114.7993 -272.9608,114.6461 -272.4405,114.5012 -271.982,114.3662 -271.5848,114.243 -271.2484,114.1332 -270.9724,114.0388 -270.7562,113.9612 -270.5992,113.9024 -270.501,113.8639 -250.0037,105.2364 -234.9094,135.625 -254.1686,146.7449 -254.2587,146.8 -254.4004,146.8895 -254.5928,147.0149 -254.8348,147.1778 -255.1255,147.3795 -255.4637,147.6216 -255.8483,147.9054 -256.2781,148.2324 -256.752,148.6038 -257.2688,149.0211 -257.8271,149.4856 -258.4258,149.9985 -259.0635,150.5611 -259.7389,151.1747 -260.4506,151.8405 -261.1973,152.5596 -261.9775,153.3331 -262.7899,154.1623 -263.6329,155.0482 -264.5051,155.9918 -265.4049,156.9942 -266.3308,158.0563 -267.2813,159.1792 -268.2548,160.3638 -269.2497,161.6109 -270.2643,162.9214 -271.297,164.2962 -272.3462,165.736 -273.4102,167.2416 -274.4873,168.8138 -275.5757,170.4531 -275.9399,171.7037 -263.1431,190.7372 -261.8475,190.8719 -259.9187,190.4826 -258.0563,190.0785 -256.2605,189.6614 -254.5312,189.2332 -252.8683,188.7956 -251.2718,188.3506 -249.7414,187.8999 -248.2771,187.4455 -246.8785,186.989 -245.5455,186.5324 -244.2776,186.0774 -243.0747,185.6258 -241.9362,185.1795 -240.8617,184.7401 -239.8509,184.3095 -238.9032,183.8894 -238.0181,183.4815 -237.195,183.0876 -236.4333,182.7094 -235.7324,182.3486 -235.0915,182.0068 -234.5101,181.6858 -233.9873,181.3871 -233.5223,181.1124 -233.1143,180.8634 -232.7625,180.6416 -232.466,180.4485 -232.2238,180.2858 -232.035,180.155 -231.8987,180.0575 -231.8137,179.9949 -214.2479,166.3563 -191.8027,191.8027 -207.5277,207.5284 -207.6004,207.6049 -207.7141,207.728 -207.8675,207.899 -208.0591,208.1189 -208.2877,208.389 -208.5517,208.7104 -208.8497,209.0841 -209.1803,209.5111 -209.5419,209.9926 -209.933,210.5294 -210.3521,211.1225 -210.7977,211.7729 -211.268,212.4815 -211.7616,213.2489 -212.2768,214.0762 -212.8119,214.9641 -213.3653,215.9132 -213.9354,216.9244 -214.5204,217.9982 -215.1186,219.1354 -215.7284,220.3366 -216.3478,221.6022 -216.9753,222.9328 -217.609,224.329 -218.2472,225.7911 -218.8881,227.3195 -219.5298,228.9148 -220.1706,230.5771 -220.8087,232.3068 -221.4421,234.1041 -222.0691,235.9693 -222.0973,237.2716 -204.8103,252.3445 -203.524,252.1392 -201.7616,251.264 -200.0673,250.3917 -198.4406,249.524 -196.8811,248.6627 -195.3881,247.8097 -193.9612,246.9666 -192.5996,246.1353 -191.3028,245.3173 -190.07,244.5144 -188.9006,243.7283 -187.7937,242.9607 -186.7486,242.2131 -185.7644,241.4873 -184.8403,240.7849 -183.9754,240.1073 -183.1687,239.4562 -182.4193,238.8332 -181.7262,238.2397 -181.0883,237.6772 -180.5047,237.1472 -179.9742,236.6513 -179.4956,236.1907 -179.0679,235.7668 -178.6898,235.3812 -178.3602,235.035 -178.0778,234.7297 -177.8414,234.4665 -177.6496,234.2467 -177.5011,234.0714 -177.3946,233.942 -177.3287,233.8596 -163.8914,216.1393 -135.625,234.9094 -146.744,254.1692 -146.7945,254.2619 -146.8724,254.4102 -146.9763,254.6151 -147.1045,254.8771 -147.2554,255.1972 -147.4273,255.5759 -147.6184,256.014 -147.8272,256.5121 -148.0519,257.0707 -148.2907,257.6905 -148.542,258.3719 -148.804,259.1154 -149.075,259.9215 -149.3531,260.7906 -149.6366,261.723 -149.9237,262.7191 -150.2126,263.7792 -150.5016,264.9034 -150.7887,266.0921 -151.0722,267.3454 -151.3503,268.6634 -151.6211,270.0462 -151.8828,271.4939 -152.1336,273.0065 -152.3716,274.584 -152.595,276.2262 -152.802,277.9332 -152.9908,279.7047 -153.1594,281.5406 -153.3061,283.4406 -153.429,285.4046 -153.1191,286.6697 -132.52,296.7549 -131.3307,296.2237 -129.8548,294.9221 -128.444,293.641 -127.0974,292.3819 -125.8139,291.1463 -124.5926,289.936 -123.4325,288.7523 -122.3325,287.5969 -121.2915,286.4711 -120.3086,285.3765 -119.3824,284.3145 -118.5119,283.2866 -117.6959,282.294 -116.9331,281.3382 -116.2223,280.4205 -115.5622,279.5422 -114.9515,278.7045 -114.3889,277.9087 -113.8731,277.156 -113.4025,276.4476 -112.9759,275.7847 -112.5918,275.1683 -112.2488,274.5995 -111.9454,274.0795 -111.68,273.6091 -111.4512,273.1894 -111.2575,272.8214 -111.0972,272.506 -110.9688,272.244 -110.8708,272.0363 -110.8014,271.8837 -110.7591,271.787 -102.3659,251.1927 -70.2047,262.0074 -75.96,283.4887 -75.9847,283.5913 -76.0217,283.7548 -76.069,283.9795 -76.125,284.2659 -76.1879,284.614 -76.2559,285.0244 -76.3271,285.497 -76.3999,286.0321 -76.4723,286.6299 -76.5426,287.2903 -76.609,288.0136 -76.6697,288.7996 -76.7227,289.6483 -76.7664,290.5598 -76.799,291.5338 -76.8185,292.5703 -76.8232,293.669 -76.8113,294.8297 -76.781,296.0522 -76.7305,297.3362 -76.658,298.6812 -76.5616,300.087 -76.4397,301.5531 -76.2905,303.0791 -76.1121,304.6644 -75.9029,306.3086 -75.661,308.0109 -75.3848,309.7709 -75.0725,311.5879 -74.7224,313.4612 -74.3329,315.39 -73.7061,316.5318 -51.1987,320.9419 -50.1874,320.121 -49.0987,318.4818 -48.0675,316.8792 -47.0926,315.3144 -46.1727,313.7888 -45.3062,312.3036 -44.492,310.86 -43.7285,309.4592 -43.0145,308.1024 -42.3483,306.7907 -41.7286,305.5252 -41.1538,304.307 -40.6224,303.137 -40.133,302.0164 -39.684,300.9459 -39.2737,299.9267 -38.9006,298.9595 -38.5632,298.0452 -38.2597,297.1847 -37.9885,296.3787 -37.748,295.6279 -37.5366,294.9331 -37.3524,294.2949 -37.1939,293.714 -37.0593,293.191 -36.947,292.7264 -36.8551,292.3208 -36.7819,291.9746 -36.7257,291.6883 -36.6848,291.4624 -36.6573,291.297 -36.6414,291.1927 -33.8645,269.1278 0,271.25 0.0005,293.489 0.0032,293.5945 0.0099,293.7619 0.0223,293.9913 0.0423,294.2823 0.0717,294.6349 0.1122,295.0489 0.1657,295.5238 0.2339,296.0596 0.3187,296.6557 0.4217,297.3118 0.5448,298.0276 0.6896,298.8025 0.858,299.6361 1.0517,300.5278 1.2724,301.4771 1.5218,302.4833 1.8016,303.5458 2.1135,304.6639 2.4592,305.8369 2.8403,307.064 3.2585,308.3445 3.7154,309.6774 4.2126,311.062 4.7517,312.4974 5.3343,313.9825 5.9619,315.5165 6.6362,317.0982 7.3585,318.7268 8.1304,320.401 8.9534,322.1198 9.8289,323.8821 10.7298,324.8228 33.6117,323.2573 34.3761,322.2026 35.0035,320.3375 35.5847,318.5226 36.1214,316.7588 36.6152,315.0471 37.0677,313.3882 37.4805,311.7831 37.8554,310.2324 38.194,308.737 38.498,307.2976 38.7691,305.9148 39.0089,304.5893 39.2194,303.3217 39.4021,302.1126 39.5588,300.9624 39.6913,299.8717 39.8013,298.8409 39.8906,297.8705 39.9611,296.9607 40.0144,296.1119 40.0523,295.3245 40.0768,294.5986 40.0895,293.9346 40.0922,293.3325 40.0868,292.7924 40.0751,292.3146 40.0589,291.899 40.04,291.5457 40.0202,291.2546 40.0012,291.0257 39.985,290.8589 39.9733,290.754 36.9448,268.7222 70.2047,262.0074 75.961,283.4884 75.9909,283.5896 76.0407,283.7497 76.1121,283.968 76.2067,284.244 76.3264,284.5769 76.4726,284.9663 76.6472,285.4112 76.8518,285.911 77.0879,286.4649 77.3573,287.072 77.6614,287.7316 78.0019,288.4426 78.3803,289.2042 78.7982,290.0154 79.2571,290.8752 79.7584,291.7825 80.3036,292.7364 80.8943,293.7357 81.5318,294.7792 82.2175,295.8659 82.9529,296.9945 83.7392,298.1638 84.5778,299.3725 85.4701,300.6194 86.4172,301.9032 87.4205,303.2224 88.4811,304.5758 89.6003,305.9619 90.7792,307.3793 92.019,308.8265 93.3208,310.3022 94.4346,310.9777 116.1316,303.5432 116.597,302.3266 116.7202,300.3627 116.8119,298.4592 116.8738,296.6166 116.9077,294.8354 116.9154,293.1159 116.8988,291.4586 116.8596,289.8638 116.7996,288.3317 116.7207,286.8627 116.6246,285.4569 116.5133,284.1145 116.3884,282.8356 116.252,281.6204 116.1057,280.4688 115.9513,279.381 115.7908,278.3568 115.6259,277.3963 115.4585,276.4993 115.2903,275.6657 115.1232,274.8953 114.9589,274.1878 114.7993,273.5431 114.6461,272.9608 114.5012,272.4405 114.3662,271.982 114.243,271.5848 114.1332,271.2484 114.0388,270.9724 113.9612,270.7562 113.9024,270.5992 113.8639,270.501 105.2364,250.0037 135.625,234.9094 146.7449,254.1686 146.8,254.2587 146.8895,254.4004 147.0149,254.5928 147.1778,254.8348 147.3795,255.1255 147.6216,255.4637 147.9054,255.8483 148.2324,256.2781 148.6038,256.752 149.0211,257.2688 149.4856,257.8271 149.9985,258.4258 150.5611,259.0635 151.1747,259.7389 151.8405,260.4506 152.5596,261.1973 153.3331,261.9775 154.1623,262.7899 155.0482,263.6329 155.9918,264.5051 156.9942,265.4049 158.0563,266.3308 159.1792,267.2813 160.3638,268.2548 161.6109,269.2497 162.9214,270.2643 164.2962,271.297 165.736,272.3462 167.2416,273.4102 168.8138,274.4873 170.4531,275.5757 171.7037,275.9399 190.7372,263.1431 190.8719,261.8475 190.4826,259.9187 190.0785,258.0563 189.6614,256.2605 189.2332,254.5312 188.7956,252.8683 188.3506,251.2718 187.8999,249.7414 187.4455,248.2771 186.989,246.8785 186.5324,245.5455 186.0774,244.2776 185.6258,243.0747 185.1795,241.9362 184.7401,240.8617 184.3095,239.8509 183.8894,238.9032 183.4815,238.0181 183.0876,237.195 182.7094,236.4333 182.3486,235.7324 182.0068,235.0915 181.6858,234.5101 181.3871,233.9873 181.1124,233.5223 180.8634,233.1143 180.6416,232.7625 180.4485,232.466 180.2858,232.2238 180.155,232.035 180.0575,231.8987 179.9949,231.8137 166.3563,214.2479 191.8027,191.8027 207.5284,207.5277 207.6049,207.6004 207.728,207.7141 207.899,207.8675 208.1189,208.0591 208.389,208.2877 208.7104,208.5517 209.0841,208.8497 209.5111,209.1803 209.9926,209.5419 210.5294,209.933 211.1225,210.3521 211.7729,210.7977 212.4815,211.268 213.2489,211.7616 214.0762,212.2768 214.9641,212.8119 215.9132,213.3653 216.9244,213.9354 217.9982,214.5204 219.1354,215.1186 220.3366,215.7284 221.6022,216.3478 222.9328,216.9753 224.329,217.609 225.7911,218.2472 227.3195,218.8881 228.9148,219.5298 230.5771,220.1706 232.3068,220.8087 234.1041,221.4421 235.9693,222.0691 237.2716,222.0973 252.3445,204.8103 252.1392,203.524 251.264,201.7616 250.3917,200.0673 249.524,198.4406 248.6627,196.8811 247.8097,195.3881 246.9666,193.9612 246.1353,192.5996 245.3173,191.3028 244.5144,190.07 243.7283,188.9006 242.9607,187.7937 242.2131,186.7486 241.4873,185.7644 240.7849,184.8403 240.1073,183.9754 239.4562,183.1687 238.8332,182.4193 238.2397,181.7262 237.6772,181.0883 237.1472,180.5047 236.6513,179.9742 236.1907,179.4956 235.7668,179.0679 235.3812,178.6898 235.035,178.3602 234.7297,178.0778 234.4665,177.8414 234.2467,177.6496 234.0714,177.5011 233.942,177.3946 233.8596,177.3287 216.1393,163.8914 234.9094,135.625 254.1692,146.744 254.2619,146.7945 254.4102,146.8724 254.6151,146.9763 254.8771,147.1045 255.1972,147.2554 255.5759,147.4273 256.014,147.6184 256.5121,147.8272 257.0707,148.0519 257.6905,148.2907 258.3719,148.542 259.1154,148.804 259.9215,149.075 260.7906,149.3531 261.723,149.6366 262.7191,149.9237 263.7792,150.2126 264.9034,150.5016 266.0921,150.7887 267.3454,151.0722 268.6634,151.3503 270.0462,151.6211 271.4939,151.8828 273.0065,152.1336 274.584,152.3716 276.2262,152.595 277.9332,152.802 279.7047,152.9908 281.5406,153.1594 283.4406,153.3061 285.4046,153.429 286.6697,153.1191 296.7549,132.52 296.2237,131.3307 294.9221,129.8548 293.641,128.444 292.3819,127.0974 291.1463,125.8139 289.936,124.5926 288.7523,123.4325 287.5969,122.3325 286.4711,121.2915 285.3765,120.3086 284.3145,119.3824 283.2866,118.5119 282.294,117.6959 281.3382,116.9331 280.4205,116.2223 279.5422,115.5622 278.7045,114.9515 277.9087,114.3889 277.156,113.8731 276.4476,113.4025 275.7847,112.9759 275.1683,112.5918 274.5995,112.2488 274.0795,111.9454 273.6091,111.68 273.1894,111.4512 272.8214,111.2575 272.506,111.0972 272.244,110.9688 272.0363,110.8708 271.8837,110.8014 271.787,110.7591 251.1927,102.3659 262.0074,70.2047 283.4887,75.96 283.5913,75.9847 283.7548,76.0217 283.9795,76.069 284.2659,76.125 284.614,76.1879 285.0244,76.2559 285.497,76.3271 286.0321,76.3999 286.6299,76.4723 287.2903,76.5426 288.0136,76.609 288.7996,76.6697 289.6483,76.7227 290.5598,76.7664 291.5338,76.799 292.5703,76.8185 293.669,76.8232 294.8297,76.8113 296.0522,76.781 297.3362,76.7305 298.6812,76.658 300.087,76.5616 301.5531,76.4397 303.0791,76.2905 304.6644,76.1121 306.3086,75.9029 308.0109,75.661 309.7709,75.3848 311.5879,75.0725 313.4612,74.7224 315.39,74.3329 316.5318,73.7061 320.9419,51.1987 320.121,50.1874 318.4818,49.0987 316.8792,48.0675 315.3144,47.0926 313.7888,46.1727 312.3036,45.3062 310.86,44.492 309.4592,43.7285 308.1024,43.0145 306.7907,42.3483 305.5252,41.7286 304.307,41.1538 303.137,40.6224 302.0164,40.133 300.9459,39.684 299.9267,39.2737 298.9595,38.9006 298.0452,38.5632 297.1847,38.2597 296.3787,37.9885 295.6279,37.748 294.9331,37.5366 294.2949,37.3524 293.714,37.1939 293.191,37.0593 292.7264,36.947 292.3208,36.8551 291.9746,36.7819 291.6883,36.7257 291.4624,36.6848 291.297,36.6573 291.1927,36.6414 269.1278,33.8645 "/><g class="guides"><polyline fill="none" stroke="#444" stroke-width="0.5" stroke-miterlimit="10" points="10,0 -10,0"/><polyline fill="none" stroke="#444" stroke-width="0.5" stroke-miterlimit="10" points="0,10 0,-10"/></g><circle fill="#c00" class="firstmarker" stroke="none" stroke-miterlimit="10" cx="299.3003" cy="-20.4781" r="9.8125"/><g class="geartext"><g class="text"><polyline fill="none" stroke="#444" stroke-width="0.5" stroke-linecap="square" stroke-miterlimit="1"  points="154.33 -185.43 152.01 -187.33 149.67 -189.21 147.31 -191.06 144.92 -192.87 "/><polyline fill="none" stroke="#444" stroke-width="0.5" stroke-linecap="square" stroke-miterlimit="1"  points="145.95 -184.5 153.39 -193.92 "/><polyline fill="none" stroke="#444" stroke-width="0.5" stroke-linecap="square" stroke-miterlimit="1"  points="158.17 -190.04 153.9 -189.66 149.67 -189.21 145.47 -188.68 141.31 -188.08 "/><polyline fill="none" stroke="#444" stroke-width="0.5" stroke-linecap="square" stroke-miterlimit="1"  points="150.49 -180.82 150.12 -185.01 149.67 -189.21 149.14 -193.43 148.52 -197.67 "/><polyline fill="none" stroke="#444" stroke-width="0.5" stroke-linecap="square" stroke-miterlimit="1"  points="161.43 -171.12 157.26 -170.9 155.13 -172.85 154.94 -177.02 162.84 -186.05 167.15 -186.24 169.45 -184.15 169.67 -179.85 161.43 -171.12 "/><polyline fill="none" stroke="#444" stroke-width="0.5" stroke-linecap="square" stroke-miterlimit="1"  points="194.95 -156.91 180.92 -145.63 182.57 -150.73 184.11 -155.9 185.56 -161.12 186.9 -166.41 173.46 -154.44 "/><polyline fill="none" stroke="#444" stroke-width="0.5" stroke-linecap="square" stroke-miterlimit="1"  points="201.16 -138.54 199.42 -141.03 197.65 -143.5 195.85 -145.95 194.02 -148.37 "/><polyline fill="none" stroke="#444" stroke-width="0.5" stroke-linecap="square" stroke-miterlimit="1"  points="196.22 -135.14 194.52 -137.57 192.8 -139.97 191.04 -142.36 189.26 -144.73 "/><polyline fill="none" stroke="#444" stroke-width="0.5" stroke-linecap="square" stroke-miterlimit="1"  points="200.56 -117.11 199.09 -119.59 197.59 -122.06 196.06 -124.51 194.49 -126.94 199.52 -130.22 203.65 -129.33 205.25 -126.79 206.81 -124.23 210.93 -123.16 213.52 -124.67 214.52 -128.86 212.9 -131.52 211.25 -134.16 207.05 -135.13 "/><polyline fill="none" stroke="#444" stroke-width="0.5" stroke-linecap="square" stroke-miterlimit="1"  points="214.13 -104.46 212.81 -107.12 211.46 -109.76 210.08 -112.38 208.67 -114.98 213.61 -114.26 218.56 -113.44 223.53 -112.51 207.45 -104.42 "/><polyline fill="none" stroke="#444" stroke-width="0.5" stroke-linecap="square" stroke-miterlimit="1"  points="225.2 -86.53 226.26 -83.72 227.28 -80.9 228.27 -78.07 232.07 -76.16 234.92 -77.1 236.78 -80.98 235.76 -83.92 234.7 -86.84 233.6 -89.76 216.8 -83.3 "/><polyline fill="none" stroke="#444" stroke-width="0.5" stroke-linecap="square" stroke-miterlimit="1"  points="222.4 -66.91 233.89 -70.37 "/><polyline fill="none" stroke="#444" stroke-width="0.5" stroke-linecap="square" stroke-miterlimit="1"  points="236.77 -71.23 239.64 -72.09 "/><polyline fill="none" stroke="#444" stroke-width="0.5" stroke-linecap="square" stroke-miterlimit="1"  points="229.7 -50.79 226.13 -52.96 228.37 -56.49 242.93 -60.09 "/><polyline fill="none" stroke="#444" stroke-width="0.5" stroke-linecap="square" stroke-miterlimit="1"  points="238.49 -52.73 237.82 -55.7 237.1 -58.65 236.36 -61.59 235.57 -64.53 "/><polyline fill="none" stroke="#444" stroke-width="0.5" stroke-linecap="square" stroke-miterlimit="1"  points="229.88 -33.1 229.45 -35.96 228.99 -38.81 228.48 -41.65 230.89 -45.06 236.78 -46.21 240.29 -43.8 240.82 -40.81 241.31 -37.81 241.76 -34.81 "/><polyline fill="none" stroke="#444" stroke-width="0.5" stroke-linecap="square" stroke-miterlimit="1"  points="236.59 -28.08 239.9 -25.45 243.19 -22.75 243.45 -19.72 240.69 -16.49 231.71 -15.87 "/><polyline fill="none" stroke="#444" stroke-width="0.5" stroke-linecap="square" stroke-miterlimit="1"  points="230.63 -27.37 248.51 -29.49 "/><polyline fill="none" stroke="#444" stroke-width="0.5" stroke-linecap="square" stroke-miterlimit="1"  points="232.21 4.33 232.14 7.22 232.03 10.11 231.89 12.99 234.7 16.08 246.67 16.9 249.86 14 250.01 10.89 250.13 7.78 250.21 4.67 "/><polyline fill="none" stroke="#444" stroke-width="0.5" stroke-linecap="square" stroke-miterlimit="1"  points="250.13 7.78 232.14 7.22 "/><polyline fill="none" stroke="#444" stroke-width="0.5" stroke-linecap="square" stroke-miterlimit="1"  points="241.76 34.81 242.17 31.8 242.55 28.79 242.89 25.77 243.19 22.75 "/><polyline fill="none" stroke="#444" stroke-width="0.5" stroke-linecap="square" stroke-miterlimit="1"  points="235.82 33.95 236.22 31.02 236.59 28.08 236.92 25.14 237.21 22.19 "/><polyline fill="none" stroke="#444" stroke-width="0.5" stroke-linecap="square" stroke-miterlimit="1"  points="237.86 40.31 237.34 43.26 236.78 46.21 236.19 49.15 232.63 51.44 229.7 50.79 227.38 47.32 227.95 44.49 228.48 41.65 231.94 39.31 240.82 40.81 243.24 44.34 245.62 47.94 245 50.99 "/><polyline fill="none" stroke="#444" stroke-width="0.5" stroke-linecap="square" stroke-miterlimit="1"  points="230.14 72.37 229.22 75.22 228.27 78.07 227.28 80.9 229.07 84.76 231.88 85.8 235.76 83.92 236.78 80.98 237.77 78.03 238.73 75.07 221.55 69.67 "/><polyline fill="none" stroke="#444" stroke-width="0.5" stroke-linecap="square" stroke-miterlimit="1"  points="222.12 101.6 223.36 98.83 224.57 96.05 225.75 93.25 226.89 90.43 "/><polyline fill="none" stroke="#444" stroke-width="0.5" stroke-linecap="square" stroke-miterlimit="1"  points="216.66 99.11 217.87 96.4 219.06 93.69 220.2 90.96 221.32 88.21 "/><polyline fill="none" stroke="#444" stroke-width="0.5" stroke-linecap="square" stroke-miterlimit="1"  points="208.67 114.98 210.08 112.38 211.46 109.76 212.81 107.12 214.13 104.46 216.38 108.92 218.56 113.44 220.66 118.04 204.79 109.55 "/><polyline fill="none" stroke="#444" stroke-width="0.5" stroke-linecap="square" stroke-miterlimit="1"  points="200.37 134.36 198.69 136.84 196.97 139.3 195.22 141.74 195.85 145.95 198.26 147.74 202.51 147.02 204.32 144.5 206.1 141.94 207.85 139.37 192.9 129.34 "/><polyline fill="none" stroke="#444" stroke-width="0.5" stroke-linecap="square" stroke-miterlimit="1"  points="182.72 143.36 187.44 147.07 190.27 153.15 192.98 159.32 186.4 157.83 179.9 156.21 175.37 152.27 "/><polyline fill="none" stroke="#444" stroke-width="0.5" stroke-linecap="square" stroke-miterlimit="1"  points="187.44 147.07 185.6 149.39 183.73 151.68 181.83 153.96 179.9 156.21 "/><polyline fill="none" stroke="#444" stroke-width="0.5" stroke-linecap="square" stroke-miterlimit="1"  points="171.98 173.44 174.12 171.29 176.24 169.11 178.33 166.91 180.39 164.68 "/><polyline fill="none" stroke="#444" stroke-width="0.5" stroke-linecap="square" stroke-miterlimit="1"  points="167.75 169.18 169.84 167.08 171.91 164.96 173.95 162.81 175.96 160.63 "/><polyline fill="none" stroke="#444" stroke-width="0.5" stroke-linecap="square" stroke-miterlimit="1"  points="169.67 179.85 169.45 184.15 157.26 170.9 "/><polyline fill="none" stroke="#444" stroke-width="0.5" stroke-linecap="square" stroke-miterlimit="1"  points="155.13 172.85 157.26 170.9 159.38 168.94 "/><polyline fill="none" stroke="#444" stroke-width="0.5" stroke-linecap="square" stroke-miterlimit="1"  points="141.81 183.93 144.09 182.15 146.34 180.35 148.57 178.51 150.78 176.65 154.67 181.21 154.33 185.43 152.01 187.33 149.67 189.21 149.14 193.43 150.97 195.81 155.25 196.27 157.68 194.32 160.09 192.35 160.52 188.06 "/></g></g><g class="guides gearguides" opacity="0.2"><circle class="pitch" fill="none" stroke="#f00" stroke-miterlimit="10" cx="0" cy="0" r="300"/><circle class="outer" fill="none" stroke="#ccc" stroke-miterlimit="10" stroke-dasharray="2,2" cx="0" cy="0" r="325"/><circle class="base" fill="none" stroke="#00f" stroke-miterlimit="10" stroke-dasharray="2,2" cx="0" cy="0" r="293.44"/></g></svg>